<svg xmlns="http://www.w3.org/2000/svg" xmlns:xlink="http://www.w3.org/1999/xlink" xmlns:inkscape="http://www.inkscape.org/namespaces/inkscape" version="1.1" width="633.042" height="211.915" viewBox="0 0 633.042 211.915">
<path transform="matrix(1,0,0,-1,75.942,93.176998)" d="M538.2783 13.44666H424.04899C421.84806 13.44666 420.06388 11.66249 420.06388 9.46155V-9.46155C420.06388-11.66249 421.84806-13.44666 424.04899-13.44666H538.2783C540.4793-13.44666 542.2635-11.66249 542.2635-9.46155V9.46155C542.2635 11.66249 540.4793 13.44666 538.2783 13.44666ZM420.06388-13.44666" fill="#f9f8ff"/>
<path transform="matrix(1,0,0,-1,75.942,93.176998)" stroke-width=".3985" stroke-linecap="butt" stroke-miterlimit="10" stroke-linejoin="miter" fill="none" stroke="#a78bfa" d="M538.2783 13.44666H424.04899C421.84806 13.44666 420.06388 11.66249 420.06388 9.46155V-9.46155C420.06388-11.66249 421.84806-13.44666 424.04899-13.44666H538.2783C540.4793-13.44666 542.2635-11.66249 542.2635-9.46155V9.46155C542.2635 11.66249 540.4793 13.44666 538.2783 13.44666ZM420.06388-13.44666"/>
<path transform="matrix(1,0,0,-1,75.942,93.176998)" d="M61.2652 92.9784H-61.2652C-67.86803 92.9784-73.22052 87.6259-73.22052 81.02307V-81.02307C-73.22052-87.6259-67.86803-92.9784-61.2652-92.9784H61.2652C67.86803-92.9784 73.22052-87.6259 73.22052-81.02307V81.02307C73.22052 87.6259 67.86803 92.9784 61.2652 92.9784ZM-73.22052-92.9784" fill="#fef2f2"/>
<path transform="matrix(1,0,0,-1,75.942,93.176998)" stroke-width=".3985" stroke-linecap="butt" stroke-miterlimit="10" stroke-linejoin="miter" fill="none" stroke="#f87171" d="M61.2652 92.9784H-61.2652C-67.86803 92.9784-73.22052 87.6259-73.22052 81.02307V-81.02307C-73.22052-87.6259-67.86803-92.9784-61.2652-92.9784H61.2652C67.86803-92.9784 73.22052-87.6259 73.22052-81.02307V81.02307C73.22052 87.6259 67.86803 92.9784 61.2652 92.9784ZM-73.22052-92.9784"/>
<text fill="#c65a5a" xml:space="preserve" transform="matrix(.82 0 -0 .82 1.8165627 176.35726)" font-size="11.95517" font-family="LMRoman12" font-weight="bold"><tspan y="-197.543" x="10.092 17.420517 23.959996 27.701964 31.443932 38.915914 44.41529 50.548295 55.031484 60.0407 67.51268 74.984668 82.45665 88.434238 94.56724 106.5224 114.74756 120.24693 127.15702 131.26959 137.40259 143.38018 148.61653 155.34729 160.84667">Failure-InducedTrajectory</tspan></text>
<text fill="#374151" xml:space="preserve" transform="matrix(.82 0 -0 .82 .49013949 209.58419)" font-size="8.96638" font-family="LMRoman9" font-style="italic"><tspan y="-12.949" x="20.502 24.994158 30.29329 35.00064 37.82505 40.174245 45.11472 48.53091 52.763044 59.51473 64.22208 67.64724">&#x201c;Failuresare</tspan></text>
<text fill="#374151" xml:space="preserve" transform="matrix(.82 0 -0 .82 .49013949 209.58419)" font-size="8.96638" font-family="LMRoman10" font-weight="bold" font-style="italic"><tspan y="-12.949" x="74.862 80.69015 85.98928 89.44134 95.00946 98.98157 104.2807">natural</tspan></text>
<text fill="#374151" xml:space="preserve" transform="matrix(.82 0 -0 .82 .49013949 209.58419)" font-size="8.96638" font-family="LMRoman9" font-style="italic"><tspan y="-12.949" x="106.943 112.75321 117.92681 122.63416 128.6775 131.50193 136.67552 139.49994 143.27478 147.50691 150.56446 154.33034 159.03769">,notinjected&#x201d;</tspan></text>
<text fill="#374151" xml:space="preserve" transform="matrix(.82 0 -0 .82 .49013949 209.58419)" font-size="6.97385" font-family="LMRoman7" font-style="italic"><tspan y="-1.99" x="42.505 49.98097 53.363286 57.568517 64.3471 71.0141 74.81485 79.02008 82.81386 87.96056 92.165798 96.371028 99.44649 106.63653 111.25322 114.64252 118.436298 122.641529 125.417118 127.98349 131.77727 135.57105 138.96035">Weakmodelhardnegatives.</tspan></text>
<path transform="matrix(1,0,0,-1,78.088977,95.32397)" d="M24.30678 62.76028H-24.30678C-26.50772 62.76028-28.29189 60.97612-28.29189 58.77518V43.50084C-28.29189 41.2999-26.50772 39.51573-24.30678 39.51573H24.30678C26.50772 39.51573 28.29189 41.2999 28.29189 43.50084V58.77518C28.29189 60.97612 26.50772 62.76028 24.30678 62.76028ZM-28.29189 39.51573" fill="#7f807f" fill-opacity=".05"/>
<path transform="matrix(1,0,0,-1,75.942,93.176998)" d="M24.30678 62.76028H-24.30678C-26.50772 62.76028-28.29189 60.97612-28.29189 58.77518V43.50084C-28.29189 41.2999-26.50772 39.51573-24.30678 39.51573H24.30678C26.50772 39.51573 28.29189 41.2999 28.29189 43.50084V58.77518C28.29189 60.97612 26.50772 62.76028 24.30678 62.76028ZM-28.29189 39.51573" fill="#ffffff"/>
<path transform="matrix(1,0,0,-1,75.942,93.176998)" stroke-width=".3985" stroke-linecap="butt" stroke-miterlimit="10" stroke-linejoin="miter" fill="none" stroke="#7d828c" d="M24.30678 62.76028H-24.30678C-26.50772 62.76028-28.29189 60.97612-28.29189 58.77518V43.50084C-28.29189 41.2999-26.50772 39.51573-24.30678 39.51573H24.30678C26.50772 39.51573 28.29189 41.2999 28.29189 43.50084V58.77518C28.29189 60.97612 26.50772 62.76028 24.30678 62.76028ZM-28.29189 39.51573"/>
<text xml:space="preserve" transform="matrix(.82 0 -0 .82 9.067322 180.98793)" font-size="8.96638" font-family="LMRoman9"><tspan y="-171.817" x="59.433 62.759527 67.879329 72.99913 78.118938 84.69129 90.5822 95.19092 98.8223">InputTask</tspan></text>
<text xml:space="preserve" transform="matrix(.82 0 -0 .82 9.067322 180.98793)" font-size="8.96638" font-family="Computer Modern" font-style="italic"><tspan y="-160.858" x="78.943">x</tspan></text>
<path transform="matrix(1,0,0,-1,77.934558,95.16955)" d="M-13.94672 4.64883C-13.94672 16.20285-23.31285 25.56898-34.86687 25.56898-46.42088 25.56898-55.78703 16.20285-55.78703 4.64883-55.78703-6.90517-46.42088-16.2713-34.86687-16.2713-23.31285-16.2713-13.94672-6.90517-13.94672 4.64883ZM-34.86687 4.64883" fill="#7f807f" fill-opacity=".1"/>
<path transform="matrix(1,0,0,-1,75.942,93.176998)" d="M-13.94672 4.64883C-13.94672 16.20285-23.31285 25.56898-34.86687 25.56898-46.42088 25.56898-55.78703 16.20285-55.78703 4.64883-55.78703-6.90517-46.42088-16.2713-34.86687-16.2713-23.31285-16.2713-13.94672-6.90517-13.94672 4.64883ZM-34.86687 4.64883" fill="#fef2f2"/>
<path transform="matrix(1,0,0,-1,75.942,93.176998)" stroke-width=".3985" stroke-linecap="butt" stroke-miterlimit="10" stroke-linejoin="miter" fill="none" stroke="#f87171" d="M-13.94672 4.64883C-13.94672 16.20285-23.31285 25.56898-34.86687 25.56898-46.42088 25.56898-55.78703 16.20285-55.78703 4.64883-55.78703-6.90517-46.42088-16.2713-34.86687-16.2713-23.31285-16.2713-13.94672-6.90517-13.94672 4.64883ZM-34.86687 4.64883"/>
<text xml:space="preserve" transform="matrix(.82 0 -0 .82 5.0697004 190.95886)" font-size="8.96638" font-family="LMRoman9" font-weight="bold"><tspan y="-127.382" x="31.061 41.130247 45.99899 51.15466">Weak</tspan></text>
<text xml:space="preserve" transform="matrix(.82 0 -0 .82 5.0697004 190.95886)" font-size="8.96638" font-family="LMRoman9"><tspan y="-116.423" x="28.165 33.284807 36.871358 41.99116 47.110967 51.208604 56.068384">Student</tspan></text>
<path transform="matrix(1,0,0,-1,78.088977,95.32397)" d="M59.17366 16.27112H10.56007C8.35913 16.27112 6.57497 14.48694 6.57497 12.28601V-2.98834C6.57497-5.18929 8.35913-6.97345 10.56007-6.97345H59.17366C61.3746-6.97345 63.15877-5.18929 63.15877-2.98834V12.28601C63.15877 14.48694 61.3746 16.27112 59.17366 16.27112ZM6.57497-6.97345" fill="#7f807f" fill-opacity=".05"/>
<path transform="matrix(1,0,0,-1,75.942,93.176998)" d="M59.17366 16.27112H10.56007C8.35913 16.27112 6.57497 14.48694 6.57497 12.28601V-2.98834C6.57497-5.18929 8.35913-6.97345 10.56007-6.97345H59.17366C61.3746-6.97345 63.15877-5.18929 63.15877-2.98834V12.28601C63.15877 14.48694 61.3746 16.27112 59.17366 16.27112ZM6.57497-6.97345" fill="#fee3e3"/>
<path transform="matrix(1,0,0,-1,75.942,93.176998)" stroke-width=".3985" stroke-linecap="butt" stroke-miterlimit="10" stroke-linejoin="miter" fill="none" stroke="#c65a5a" d="M59.17366 16.27112H10.56007C8.35913 16.27112 6.57497 14.48694 6.57497 12.28601V-2.98834C6.57497-5.18929 8.35913-6.97345 10.56007-6.97345H59.17366C61.3746-6.97345 63.15877-5.18929 63.15877-2.98834V12.28601C63.15877 14.48694 61.3746 16.27112 59.17366 16.27112ZM6.57497-6.97345"/>
<text xml:space="preserve" transform="matrix(.82 0 -0 .82 15.343208 189.2062)" font-size="8.96638" font-family="LMRoman9"><tspan y="-126.16" x="99.269 105.92205 109.508609 113.09516 117.192798 124.86802 129.98783">Attempt</tspan></text>
<text xml:space="preserve" transform="matrix(.82 0 -0 .82 15.343208 189.2062)" font-size="8.96638" font-family="Computer Modern"><tspan y="-115.201" x="107.854">&#x02c6;</tspan></text>
<text xml:space="preserve" transform="matrix(.82 0 -0 .82 15.343208 189.2062)" font-size="8.96638" font-family="Computer Modern" font-style="italic"><tspan y="-115.201" x="107.216">y</tspan></text>
<text xml:space="preserve" transform="matrix(.82 0 -0 .82 15.343208 189.2062)" font-size="5.97758" font-family="Computer Modern" font-style="italic"><tspan y="-114.139" x="111.754 116.02797 120.062839 122.728839">fail</tspan></text>
<path transform="matrix(1,0,0,-1,75.942,93.176998)" d="M6.98405-60.69406 14.59483-32.28424H62.7497L55.13892-60.69406Z" fill="#f9fafb"/>
<path transform="matrix(1,0,0,-1,75.942,93.176998)" stroke-width=".3985" stroke-linecap="butt" stroke-miterlimit="10" stroke-linejoin="miter" fill="none" stroke="#9ca3af" d="M6.98405-60.69406 14.59483-32.28424H62.7497L55.13892-60.69406Z"/>
<text xml:space="preserve" transform="matrix(.82 0 -0 .82 17.861229 200.11383)" font-size="8.96638" font-family="LMRoman9"><tspan y="-76.521" x="105.357 111.624507 116.48428">Env</tspan></text>
<text xml:space="preserve" transform="matrix(.82 0 -0 .82 17.861229 200.11383)" font-size="8.96638" font-family="LMMono9"><tspan y="-65.562" x="99.229 103.93635 108.6437 113.35105 118.0584 122.765758">exec()</tspan></text>
<path transform="matrix(1,0,0,-1,78.088977,95.32397)" d="M-10.56007-34.86688H-59.17366C-61.3746-34.86688-63.15877-36.65105-63.15877-38.85199V-54.12634C-63.15877-56.32729-61.3746-58.11145-59.17366-58.11145H-10.56007C-8.35913-58.11145-6.57497-56.32729-6.57497-54.12634V-38.85199C-6.57497-36.65105-8.35913-34.86688-10.56007-34.86688ZM-63.15877-58.11145" fill="#7f807f" fill-opacity=".05"/>
<path transform="matrix(1,0,0,-1,75.942,93.176998)" d="M-10.56007-34.86688H-59.17366C-61.3746-34.86688-63.15877-36.65105-63.15877-38.85199V-54.12634C-63.15877-56.32729-61.3746-58.11145-59.17366-58.11145H-10.56007C-8.35913-58.11145-6.57497-56.32729-6.57497-54.12634V-38.85199C-6.57497-36.65105-8.35913-34.86688-10.56007-34.86688ZM-63.15877-58.11145" fill="#fee3e3"/>
<path transform="matrix(1,0,0,-1,75.942,93.176998)" stroke-width=".3985" stroke-linecap="butt" stroke-miterlimit="10" stroke-linejoin="miter" fill="none" stroke="#c65a5a" d="M-10.56007-34.86688H-59.17366C-61.3746-34.86688-63.15877-36.65105-63.15877-38.85199V-54.12634C-63.15877-56.32729-61.3746-58.11145-59.17366-58.11145H-10.56007C-8.35913-58.11145-6.57497-56.32729-6.57497-54.12634V-38.85199C-6.57497-36.65105-8.35913-34.86688-10.56007-34.86688ZM-63.15877-58.11145"/>
<text xml:space="preserve" transform="matrix(.82 0 -0 .82 2.7912598 198.55126)" font-size="8.96638" font-family="LMRoman9"><tspan y="-74.243" x="23.204 29.4715 33.075986 36.68047 41.28919 47.87948 53.77039 57.374876 61.983594 66.08123">ErrorTrace</tspan></text>
<text xml:space="preserve" transform="matrix(.82 0 -0 .82 2.7912598 198.55126)" font-size="8.96638" font-family="Computer Modern" font-style="italic"><tspan y="-63.284" x="44.546">e</tspan></text>
<path transform="matrix(1,0,0,-1,75.942,93.176998)" stroke-width=".79701" stroke-linecap="butt" stroke-miterlimit="10" stroke-linejoin="miter" fill="none" stroke="#4b5563" d="M-28.45625 51.14107H-29.88698C-32.63815 51.14107-34.86836 48.91087-34.86836 46.15968V31.11588"/>
<path transform="matrix(0,1,1,0,41.073644,58.940027)" d="M7.24382 0 1.39107 1.96269 3.32034 0 1.39107-1.96269Z" fill="#4b5563"/>
<path transform="matrix(0,1,1,0,41.073644,58.940027)" stroke-width=".79701" stroke-linecap="butt" stroke-miterlimit="10" stroke-linejoin="miter" fill="none" stroke="#4b5563" d="M7.24382 0 1.39107 1.96269 3.32034 0 1.39107-1.96269Z"/>
<path transform="matrix(1,0,0,-1,75.942,93.176998)" stroke-width=".79701" stroke-linecap="butt" stroke-miterlimit="10" stroke-linejoin="miter" fill="none" stroke="#4b5563" d="M-13.78377 4.64899H1.02887"/>
<path transform="matrix(1,0,0,-1,73.849788,88.52801)" d="M7.24382 0 1.39107 1.96269 3.32034 0 1.39107-1.96269Z" fill="#4b5563"/>
<path transform="matrix(1,0,0,-1,73.849788,88.52801)" stroke-width=".79701" stroke-linecap="butt" stroke-miterlimit="10" stroke-linejoin="miter" fill="none" stroke="#4b5563" d="M7.24382 0 1.39107 1.96269 3.32034 0 1.39107-1.96269Z"/>
<text fill="#4b5563" xml:space="preserve" transform="matrix(.82 0 -0 .82 11.964962 189.1358)" font-size="6.97385" font-family="LMRoman7"><tspan y="-126.551" x="66.472 72.63689 76.1796">Gen</tspan></text>
<path transform="matrix(1,0,0,-1,75.942,93.176998)" stroke-width=".79701" stroke-linecap="butt" stroke-miterlimit="10" stroke-linejoin="miter" fill="none" stroke="#4b5563" d="M34.86931-7.13705 34.86986-26.7357"/>
<path transform="matrix(.00002,.99998,.99998,-.00002,110.81181,116.79163)" d="M7.24382 0 1.39107 1.96269 3.32034 0 1.39107-1.96269Z" fill="#4b5563"/>
<path transform="matrix(.00002,.99998,.99998,-.00002,110.81181,116.79163)" stroke-width=".79701" stroke-linecap="butt" stroke-miterlimit="10" stroke-linejoin="miter" fill="none" stroke="#4b5563" d="M7.24382 0 1.39107 1.96269 3.32034 0 1.39107-1.96269Z"/>
<path transform="matrix(1,0,0,-1,75.942,93.176998)" stroke-width=".79701" stroke-linecap="butt" stroke-miterlimit="10" stroke-linejoin="miter" fill="none" stroke="#4b5563" d="M10.62115-46.49168-1.02887-46.49117"/>
<path transform="matrix(-1,-0,0,1,78.03422,139.66817)" d="M7.24382 0 1.39107 1.96269 3.32034 0 1.39107-1.96269Z" fill="#4b5563"/>
<path transform="matrix(-1,-0,0,1,78.03422,139.66817)" stroke-width=".79701" stroke-linecap="butt" stroke-miterlimit="10" stroke-linejoin="miter" fill="none" stroke="#4b5563" d="M7.24382 0 1.39107 1.96269 3.32034 0 1.39107-1.96269Z"/>
<text fill="#4b5563" xml:space="preserve" transform="matrix(.82 0 -0 .82 12.433506 198.23896)" font-size="6.97385" font-family="Computer Modern" font-style="italic"><tspan y="-75.978" x="69.075">&#x00d7;</tspan></text>
<text fill="#4b5563" xml:space="preserve" transform="matrix(.82 0 -0 .82 12.433506 198.23896)" font-size="6.97385" font-family="LMRoman7"><tspan y="-75.978" x="77.987 82.48513 86.45325 88.7058">Fail</tspan></text>
<text fill="#f87171" xml:space="preserve" transform="matrix(.82 0 -0 .82 5.3852446 202.68405)" font-size="6.97385" font-family="LMRoman7" font-weight="bold"><tspan y="-51.283" x="29.918 34.813646 39.200197 41.731706 44.263216 49.27044 53.00145">Failure</tspan></text>
<path transform="matrix(1,0,0,-1,75.942,93.176998)" d="M221.65308 92.9784H99.12267C92.51984 92.9784 87.16734 87.6259 87.16734 81.02307V-81.02307C87.16734-87.6259 92.51984-92.9784 99.12267-92.9784H221.65308C228.2559-92.9784 233.6084-87.6259 233.6084-81.02307V81.02307C233.6084 87.6259 228.2559 92.9784 221.65308 92.9784ZM87.16734-92.9784" fill="#f3f0ff"/>
<path transform="matrix(1,0,0,-1,75.942,93.176998)" stroke-width=".3985" stroke-linecap="butt" stroke-miterlimit="10" stroke-linejoin="miter" fill="none" stroke="#a78bfa" d="M221.65308 92.9784H99.12267C92.51984 92.9784 87.16734 87.6259 87.16734 81.02307V-81.02307C87.16734-87.6259 92.51984-92.9784 99.12267-92.9784H221.65308C228.2559-92.9784 233.6084-87.6259 233.6084-81.02307V81.02307C233.6084 87.6259 228.2559 92.9784 221.65308 92.9784ZM87.16734-92.9784"/>
<text fill="#866fc8" xml:space="preserve" transform="matrix(.82 0 -0 .82 30.686036 176.36428)" font-size="11.95517" font-family="LMRoman12" font-weight="bold"><tspan y="-197.504" x="170.478 178.70316 184.83615 191.37563 196.9826 204.45459 210.58759 216.08696 220.57015 231.13852 238.6105 242.35248 249.82447 255.95746 267.91264 277.94303 284.07603 291.548 298.0875 301.82948">Teacher-GuidedRepair</tspan></text>
<text fill="#374151" xml:space="preserve" transform="matrix(.82 0 -0 .82 29.359635 209.59732)" font-size="8.96638" font-family="LMRoman9" font-style="italic"><tspan y="-12.876" x="173.782 180.0226 182.3718 187.07915">Plan</tspan></text>
<text fill="#374151" xml:space="preserve" transform="matrix(.82 0 -0 .82 29.359635 209.59732)" font-size="8.96638" font-family="Computer Modern" font-style="italic"><tspan y="-12.876" x="195.242">&#x2192;</tspan></text>
<text fill="#374151" xml:space="preserve" transform="matrix(.82 0 -0 .82 29.359635 209.59732)" font-size="8.96638" font-family="LMRoman9" font-style="italic"><tspan y="-12.876" x="207.445 213.68561 217.93567 221.71051 225.94264 230.88312 233.94066">Execute</tspan></text>
<text fill="#374151" xml:space="preserve" transform="matrix(.82 0 -0 .82 29.359635 209.59732)" font-size="8.96638" font-family="Computer Modern" font-style="italic"><tspan y="-12.876" x="241.153">&#x2192;</tspan></text>
<text fill="#374151" xml:space="preserve" transform="matrix(.82 0 -0 .82 29.359635 209.59732)" font-size="8.96638" font-family="LMRoman9" font-style="italic"><tspan y="-12.876" x="253.357 260.41355 264.64567 268.41154 272.64366 276.5261 280.7582">Observe</tspan></text>
<text fill="#374151" xml:space="preserve" transform="matrix(.82 0 -0 .82 29.359635 209.59732)" font-size="8.96638" font-family="Computer Modern" font-style="italic"><tspan y="-12.876" x="287.978">&#x2192;</tspan></text>
<text fill="#374151" xml:space="preserve" transform="matrix(.82 0 -0 .82 29.359635 209.59732)" font-size="8.96638" font-family="LMRoman9" font-style="italic"><tspan y="-12.876" x="300.182 306.43159 310.19746 313.96333 318.67066 322.90278 327.1349">Recover</tspan></text>
<text fill="#374151" xml:space="preserve" transform="matrix(.82 0 -0 .82 29.359635 209.59732)" font-size="6.97385" font-family="LMRoman7" font-style="italic"><tspan y="-1.917" x="214.835 220.0654 223.44773 227.65296 231.44673 235.65196 239.44574 245.91747 248.2816 250.64574 254.43952 258.23329 264.61436 267.18074 271.38597 273.95234 276.11424 280.5287 283.61116 287.4049">Teacherfixesfailure.</tspan></text>
<path transform="matrix(1,0,0,-1,78.088977,95.32397)" d="M184.69467 62.7603H136.08109C133.88014 62.7603 132.09598 60.97614 132.09598 58.77519V43.50084C132.09598 41.2999 133.88014 39.51573 136.08109 39.51573H184.69467C186.89562 39.51573 188.67978 41.2999 188.67978 43.50084V58.77519C188.67978 60.97614 186.89562 62.7603 184.69467 62.7603ZM132.09598 39.51573" fill="#7f807f" fill-opacity=".05"/>
<path transform="matrix(1,0,0,-1,75.942,93.176998)" d="M184.69467 62.7603H136.08109C133.88014 62.7603 132.09598 60.97614 132.09598 58.77519V43.50084C132.09598 41.2999 133.88014 39.51573 136.08109 39.51573H184.69467C186.89562 39.51573 188.67978 41.2999 188.67978 43.50084V58.77519C188.67978 60.97614 186.89562 62.7603 184.69467 62.7603ZM132.09598 39.51573" fill="#fef6db"/>
<path transform="matrix(1,0,0,-1,75.942,93.176998)" stroke-width=".3985" stroke-linecap="butt" stroke-miterlimit="10" stroke-linejoin="miter" fill="none" stroke="#caa93e" d="M184.69467 62.7603H136.08109C133.88014 62.7603 132.09598 60.97614 132.09598 58.77519V43.50084C132.09598 41.2999 133.88014 39.51573 136.08109 39.51573H184.69467C186.89562 39.51573 188.67978 41.2999 188.67978 43.50084V58.77519C188.67978 60.97614 186.89562 62.7603 184.69467 62.7603ZM132.09598 39.51573"/>
<text xml:space="preserve" transform="matrix(.82 0 -0 .82 37.9368 180.83098)" font-size="8.96638" font-family="LMRoman9"><tspan y="-172.689" x="224.532 231.18506 235.79378 240.65355 244.2401 248.33774 253.19751 256.78407">Context:</tspan></text>
<text xml:space="preserve" transform="matrix(.82 0 -0 .82 37.9368 180.83098)" font-size="8.96638" font-family="Computer Modern" font-style="italic"><tspan y="-161.73" x="223.886 229.1134">x,</tspan></text>
<text xml:space="preserve" transform="matrix(.82 0 -0 .82 37.9368 180.83098)" font-size="8.96638" font-family="Computer Modern"><tspan y="-161.73" x="233.843">&#x02c6;</tspan></text>
<text xml:space="preserve" transform="matrix(.82 0 -0 .82 37.9368 180.83098)" font-size="8.96638" font-family="Computer Modern" font-style="italic"><tspan y="-161.73" x="233.205">y</tspan></text>
<text xml:space="preserve" transform="matrix(.82 0 -0 .82 37.9368 180.83098)" font-size="5.97758" font-family="Computer Modern" font-style="italic"><tspan y="-160.668" x="237.743 242.01697 246.05184 248.71784">fail</tspan></text>
<text xml:space="preserve" transform="matrix(.82 0 -0 .82 37.9368 180.83098)" font-size="8.96638" font-family="Computer Modern" font-style="italic"><tspan y="-161.73" x="251.616 255.71364">,e</tspan></text>
<path transform="matrix(1,0,0,-1,77.934558,95.16955)" d="M146.44115 4.64883C146.44115 16.20285 137.07501 25.56898 125.521 25.56898 113.96698 25.56898 104.60085 16.20285 104.60085 4.64883 104.60085-6.90517 113.96698-16.2713 125.521-16.2713 137.07501-16.2713 146.44115-6.90517 146.44115 4.64883ZM125.521 4.64883" fill="#7f807f" fill-opacity=".1"/>
<path transform="matrix(1,0,0,-1,75.942,93.176998)" d="M146.44115 4.64883C146.44115 16.20285 137.07501 25.56898 125.521 25.56898 113.96698 25.56898 104.60085 16.20285 104.60085 4.64883 104.60085-6.90517 113.96698-16.2713 125.521-16.2713 137.07501-16.2713 146.44115-6.90517 146.44115 4.64883ZM125.521 4.64883" fill="#f3f0ff"/>
<path transform="matrix(1,0,0,-1,75.942,93.176998)" stroke-width=".3985" stroke-linecap="butt" stroke-miterlimit="10" stroke-linejoin="miter" fill="none" stroke="#a78bfa" d="M146.44115 4.64883C146.44115 16.20285 137.07501 25.56898 125.521 25.56898 113.96698 25.56898 104.60085 16.20285 104.60085 4.64883 104.60085-6.90517 113.96698-16.2713 125.521-16.2713 137.07501-16.2713 146.44115-6.90517 146.44115 4.64883ZM125.521 4.64883"/>
<text xml:space="preserve" transform="matrix(.82 0 -0 .82 33.957 190.96875)" font-size="8.96638" font-family="LMRoman9" font-weight="bold"><tspan y="-127.327" x="188.825 194.71591 198.84046 203.21605 208.52414 214.41506">Strong</tspan></text>
<text xml:space="preserve" transform="matrix(.82 0 -0 .82 33.957 190.96875)" font-size="8.96638" font-family="LMRoman9"><tspan y="-116.368" x="188.65 194.53195 198.6296 203.23831 207.07593 212.19573 216.29337">Teacher</tspan></text>
<path transform="matrix(1,0,0,-1,78.088977,95.32397)" d="M219.56154 16.27112H170.94795C168.74701 16.27112 166.96285 14.48694 166.96285 12.28601V-2.98834C166.96285-5.18929 168.74701-6.97345 170.94795-6.97345H219.56154C221.76248-6.97345 223.54665-5.18929 223.54665-2.98834V12.28601C223.54665 14.48694 221.76248 16.27112 219.56154 16.27112ZM166.96285-6.97345" fill="#7f807f" fill-opacity=".05"/>
<path transform="matrix(1,0,0,-1,75.942,93.176998)" d="M219.56154 16.27112H170.94795C168.74701 16.27112 166.96285 14.48694 166.96285 12.28601V-2.98834C166.96285-5.18929 168.74701-6.97345 170.94795-6.97345H219.56154C221.76248-6.97345 223.54665-5.18929 223.54665-2.98834V12.28601C223.54665 14.48694 221.76248 16.27112 219.56154 16.27112ZM166.96285-6.97345" fill="#dfedfe"/>
<path transform="matrix(1,0,0,-1,75.942,93.176998)" stroke-width=".3985" stroke-linecap="butt" stroke-miterlimit="10" stroke-linejoin="miter" fill="none" stroke="#4d84c8" d="M219.56154 16.27112H170.94795C168.74701 16.27112 166.96285 14.48694 166.96285 12.28601V-2.98834C166.96285-5.18929 168.74701-6.97345 170.94795-6.97345H219.56154C221.76248-6.97345 223.54665-5.18929 223.54665-2.98834V12.28601C223.54665 14.48694 221.76248 16.27112 219.56154 16.27112ZM166.96285-6.97345"/>
<text xml:space="preserve" transform="matrix(.82 0 -0 .82 44.212678 189.24166)" font-size="8.96638" font-family="LMRoman9"><tspan y="-125.963" x="251.162 257.94059 262.0382 266.64695 270.27833 274.88706 280.00688 282.57127 287.69108 295.2856">Reasoning&#x0026;</tspan><tspan y="-115.004" x="264.004 270.02046 272.58485">Fix</tspan></text>
<text xml:space="preserve" transform="matrix(.82 0 -0 .82 44.212678 189.24166)" font-size="8.96638" font-family="Computer Modern" font-style="italic"><tspan y="-115.004" x="280.433">y</tspan></text>
<text xml:space="preserve" transform="matrix(.82 0 -0 .82 44.212678 189.24166)" font-size="5.97758" font-family="Computer Modern" font-style="italic"><tspan y="-118.813" x="285.293">&#x2217;</tspan></text>
<path transform="matrix(1,0,0,-1,75.942,93.176998)" d="M167.37194-60.69406 174.98271-32.28424H223.13758L215.5268-60.69406Z" fill="#f9fafb"/>
<path transform="matrix(1,0,0,-1,75.942,93.176998)" stroke-width=".3985" stroke-linecap="butt" stroke-miterlimit="10" stroke-linejoin="miter" fill="none" stroke="#9ca3af" d="M167.37194-60.69406 174.98271-32.28424H223.13758L215.5268-60.69406Z"/>
<text xml:space="preserve" transform="matrix(.82 0 -0 .82 46.73053 200.11383)" font-size="8.96638" font-family="LMRoman9"><tspan y="-76.521" x="265.743 272.0105 276.8703">Env</tspan></text>
<text xml:space="preserve" transform="matrix(.82 0 -0 .82 46.73053 200.11383)" font-size="8.96638" font-family="LMMono9"><tspan y="-65.562" x="259.614 264.32136 269.0287 273.73603 278.44337 283.1507">exec()</tspan></text>
<path transform="matrix(1,0,0,-1,78.088977,95.32397)" d="M155.73886-46.48917C155.73886-41.35403 151.57613-37.1913 146.441-37.1913 141.30588-37.1913 137.14315-41.35403 137.14315-46.48917 137.14315-51.62428 141.30588-55.78703 146.441-55.78703 151.57613-55.78703 155.73886-51.62428 155.73886-46.48917ZM146.441-46.48917" fill="#7f807f" fill-opacity=".1"/>
<path transform="matrix(1,0,0,-1,75.942,93.176998)" d="M155.73886-46.48917C155.73886-41.35403 151.57613-37.1913 146.441-37.1913 141.30588-37.1913 137.14315-41.35403 137.14315-46.48917 137.14315-51.62428 141.30588-55.78703 146.441-55.78703 151.57613-55.78703 155.73886-51.62428 155.73886-46.48917ZM146.441-46.48917" fill="#f0fdf4"/>
<path transform="matrix(1,0,0,-1,75.942,93.176998)" stroke-width=".3985" stroke-linecap="butt" stroke-miterlimit="10" stroke-linejoin="miter" fill="none" stroke="#4ade80" d="M155.73886-46.48917C155.73886-41.35403 151.57613-37.1913 146.441-37.1913 141.30588-37.1913 137.14315-41.35403 137.14315-46.48917 137.14315-51.62428 141.30588-55.78703 146.441-55.78703 151.57613-55.78703 155.73886-51.62428 155.73886-46.48917ZM146.441-46.48917"/>
<text xml:space="preserve" transform="matrix(.82 0 -0 .82 39.293458 199.5209)" font-size="11.95517" font-family="Euler"><tspan y="-68.856" x="218.297">&#x2713;</tspan></text>
<path transform="matrix(1,0,0,-1,75.942,93.176998)" stroke-width=".79701" stroke-linecap="butt" stroke-miterlimit="10" stroke-linejoin="miter" fill="none" stroke="#4b5563" d="M131.93161 51.14107H130.50086C127.74968 51.14107 125.51947 48.91087 125.51947 46.15968V31.11588"/>
<path transform="matrix(0,1,1,0,201.46147,58.940027)" d="M7.24382 0 1.39107 1.96269 3.32034 0 1.39107-1.96269Z" fill="#4b5563"/>
<path transform="matrix(0,1,1,0,201.46147,58.940027)" stroke-width=".79701" stroke-linecap="butt" stroke-miterlimit="10" stroke-linejoin="miter" fill="none" stroke="#4b5563" d="M7.24382 0 1.39107 1.96269 3.32034 0 1.39107-1.96269Z"/>
<path transform="matrix(1,0,0,-1,75.942,93.176998)" stroke-width=".79701" stroke-linecap="butt" stroke-miterlimit="10" stroke-linejoin="miter" fill="none" stroke="#4b5563" d="M146.60408 4.64899H161.41675"/>
<path transform="matrix(1,0,0,-1,234.23764,88.52801)" d="M7.24382 0 1.39107 1.96269 3.32034 0 1.39107-1.96269Z" fill="#4b5563"/>
<path transform="matrix(1,0,0,-1,234.23764,88.52801)" stroke-width=".79701" stroke-linecap="butt" stroke-miterlimit="10" stroke-linejoin="miter" fill="none" stroke="#4b5563" d="M7.24382 0 1.39107 1.96269 3.32034 0 1.39107-1.96269Z"/>
<text fill="#4b5563" xml:space="preserve" transform="matrix(.82 0 -0 .82 40.174028 188.95671)" font-size="6.97385" font-family="LMRoman7"><tspan y="-127.546" x="223.189 228.97032 232.51303 236.91353 240.88166 243.1342">Repair</tspan></text>
<path transform="matrix(1,0,0,-1,75.942,93.176998)" stroke-width=".79701" stroke-linecap="butt" stroke-miterlimit="10" stroke-linejoin="miter" fill="none" stroke="#4b5563" d="M195.2572-7.13705 195.25777-26.7357"/>
<path transform="matrix(.00002,.99998,.99998,-.00002,271.1997,116.79163)" d="M7.24382 0 1.39107 1.96269 3.32034 0 1.39107-1.96269Z" fill="#4b5563"/>
<path transform="matrix(.00002,.99998,.99998,-.00002,271.1997,116.79163)" stroke-width=".79701" stroke-linecap="butt" stroke-miterlimit="10" stroke-linejoin="miter" fill="none" stroke="#4b5563" d="M7.24382 0 1.39107 1.96269 3.32034 0 1.39107-1.96269Z"/>
<path transform="matrix(1,0,0,-1,75.942,93.176998)" stroke-width=".79701" stroke-linecap="butt" stroke-dasharray="2.98883,2.98883" stroke-miterlimit="10" stroke-linejoin="miter" fill="none" stroke="#2563eb" d="M195.25823-60.86089V-67.5018C195.25823-70.25298 193.02803-72.48318 190.27684-72.48318H130.50119C127.75002-72.48318 125.5198-70.25298 125.5198-67.5018V-21.84741"/>
<path transform="matrix(0,-1,-1,-0,201.46179,118.11629)" d="M7.36906 0 1.28693 2.29385 3.2911 0 1.28693-2.29385Z" fill="#2563eb"/>
<path transform="matrix(0,-1,-1,-0,201.46179,118.11629)" stroke-width=".79701" stroke-linecap="butt" stroke-miterlimit="10" stroke-linejoin="miter" fill="none" stroke="#2563eb" d="M7.36906 0 1.28693 2.29385 3.2911 0 1.28693-2.29385Z"/>
<text fill="#2563eb" xml:space="preserve" transform="matrix(.82 0 -0 .82 39.945238 205.26004)" font-size="6.97385" font-family="LMRoman7"><tspan y="-36.972" x="221.918 226.84154 231.01888 234.987">Loop</tspan></text>
<text fill="#2563eb" xml:space="preserve" transform="matrix(.82 0 -0 .82 39.945238 205.26004)" font-size="11.95517" font-family="Computer Modern" font-style="italic"><tspan y="-36.972" x="242.079">&#x2264;</tspan></text>
<text fill="#2563eb" xml:space="preserve" transform="matrix(.82 0 -0 .82 39.945238 205.26004)" font-size="6.97385" font-family="LMRoman7"><tspan y="-36.972" x="251.377">T</tspan></text>
<path transform="matrix(1,0,0,-1,75.942,93.176998)" stroke-width=".79701" stroke-linecap="butt" stroke-miterlimit="10" stroke-linejoin="miter" fill="none" stroke="#16a34a" d="M171.00856-46.49155 161.2849-46.49089"/>
<path transform="matrix(-1,-0,0,1,240.348,139.66788)" d="M7.24382 0 1.39107 1.96269 3.32034 0 1.39107-1.96269Z" fill="#16a34a"/>
<path transform="matrix(-1,-0,0,1,240.348,139.66788)" stroke-width=".79701" stroke-linecap="butt" stroke-miterlimit="10" stroke-linejoin="miter" fill="none" stroke="#16a34a" d="M7.24382 0 1.39107 1.96269 3.32034 0 1.39107-1.96269Z"/>
<text fill="#16a34a" xml:space="preserve" transform="matrix(.82 0 -0 .82 41.952775 198.35126)" font-size="6.97385" font-family="LMRoman7"><tspan y="-75.354" x="233.071 238.21073 242.17885 245.338">Pass</tspan></text>
<text fill="#d3c5fc" fill-opacity=".4" xml:space="preserve" transform="matrix(.82 0 -0 .82 41.116319 190.6199)" font-size="24.78705" font-family="Euler"><tspan y="-118.306" x="228.424">&#x27f3;</tspan></text>
<path transform="matrix(1,0,0,-1,75.942,93.176998)" d="M382.041 92.9784H259.51057C252.90773 92.9784 247.55524 87.6259 247.55524 81.02307V-81.02307C247.55524-87.6259 252.90773-92.9784 259.51057-92.9784H382.041C388.6438-92.9784 393.99629-87.6259 393.99629-81.02307V81.02307C393.99629 87.6259 388.6438 92.9784 382.041 92.9784ZM247.55524-92.9784" fill="#f0fdf4"/>
<path transform="matrix(1,0,0,-1,75.942,93.176998)" stroke-width=".3985" stroke-linecap="butt" stroke-miterlimit="10" stroke-linejoin="miter" fill="none" stroke="#4ade80" d="M382.041 92.9784H259.51057C252.90773 92.9784 247.55524 87.6259 247.55524 81.02307V-81.02307C247.55524-87.6259 252.90773-92.9784 259.51057-92.9784H382.041C388.6438-92.9784 393.99629-87.6259 393.99629-81.02307V81.02307C393.99629 87.6259 388.6438 92.9784 382.041 92.9784ZM247.55524-92.9784"/>
<text fill="#3bb266" xml:space="preserve" transform="matrix(.82 0 -0 .82 59.55551 176.35726)" font-size="11.95517" font-family="LMRoman12" font-weight="bold"><tspan y="-197.543" x="330.864 341.16938 344.91136 350.21946 355.4558 359.19779 362.93977 366.68174 373.22123 378.45759 382.19956 388.93034">Distillation</tspan></text>
<text fill="#374151" xml:space="preserve" transform="matrix(.82 0 -0 .82 58.228944 209.58419)" font-size="8.96638" font-family="LMRoman9" font-style="italic"><tspan y="-12.949" x="343.225 347.71717 354.6661 357.4905 361.25639 364.3139 367.1383 370.19584 372.545 375.36943 380.54304 387.76097 391.5358 395.7679 400.47526 405.1826 409.4147 412.2391 416.94645 420.8289 426.63014 431.80375 436.51109 442.5544 446.32029 451.02763 453.3768 458.31727 461.3748 464.1992 468.90653 474.08015 477.846">&#x201c;Distillingbehavior,notsolutions&#x201d;</tspan></text>
<text fill="#374151" xml:space="preserve" transform="matrix(.82 0 -0 .82 58.228944 209.58419)" font-size="6.97385" font-family="LMRoman7" font-style="italic"><tspan y="-1.99" x="348.063 352.6797 355.4553 359.86976 364.07499 367.86875 372.48545 378.24586 380.40776 383.79704 388.00227 391.4892 396.1059 402.47999 405.25559 409.46083 416.23939 420.4446 423.52708 427.32084 430.70314 434.4969 437.88618 444.26026 448.46549 454.01667 457.09913 460.89289 464.68666 468.89189 471.45826 474.9452">Studentlearnstheprocessofrepair.</tspan></text>
<text fill="#111827" xml:space="preserve" transform="matrix(.82 0 -0 .82 66.67761 182.04579)" font-size="7.97011" font-family="LMRoman8" font-weight="bold"><tspan y="-165.94" x="370.431 375.74708 381.1747 383.88456 389.8462 395.82377 399.85664 404.8778 407.85865 412.32987 416.66563 420.45939 425.34507 429.37794">FullTrajectory</tspan></text>
<path transform="matrix(1,0,0,-1,75.942,93.176998)" d="M373.99275 42.78214H267.5588C265.35786 42.78214 263.5737 40.99797 263.5737 38.79703V30.93675C263.5737 28.73581 265.35786 26.95164 267.5588 26.95164H373.99275C376.1937 26.95164 377.97785 28.73581 377.97785 30.93675V38.79703C377.97785 40.99797 376.1937 42.78214 373.99275 42.78214ZM263.5737 26.95164" fill="#ffffff"/>
<path transform="matrix(1,0,0,-1,75.942,93.176998)" stroke-width=".3985" stroke-linecap="butt" stroke-dasharray="2.98883,2.98883" stroke-miterlimit="10" stroke-linejoin="miter" fill="none" stroke="#9ca3af" d="M373.99275 42.78214H267.5588C265.35786 42.78214 263.5737 40.99797 263.5737 38.79703V30.93675C263.5737 28.73581 265.35786 26.95164 267.5588 26.95164H373.99275C376.1937 26.95164 377.97785 28.73581 377.97785 30.93675V38.79703C377.97785 40.99797 376.1937 42.78214 373.99275 42.78214ZM263.5737 26.95164"/>
<text xml:space="preserve" transform="matrix(.82 0 -0 .82 61.994539 184.50965)" font-size="6.97385" font-family="Computer Modern" font-style="italic"><tspan y="-152.252" x="354.719">x</tspan></text>
<text xml:space="preserve" transform="matrix(.82 0 -0 .82 61.994539 184.50965)" font-size="6.97385" font-family="Computer Modern" font-style="italic"><tspan y="-152.252" x="362.677">&#x2192;</tspan></text>
<text fill="#f87171" xml:space="preserve" transform="matrix(.82 0 -0 .82 61.994539 184.50965)" font-size="6.97385" font-family="Computer Modern"><tspan y="-152.252" x="374.648">&#x02c6;</tspan></text>
<text fill="#f87171" xml:space="preserve" transform="matrix(.82 0 -0 .82 61.994539 184.50965)" font-size="6.97385" font-family="Computer Modern" font-style="italic"><tspan y="-152.252" x="374.06">y</tspan></text>
<text fill="#f87171" xml:space="preserve" transform="matrix(.82 0 -0 .82 61.994539 184.50965)" font-size="4.98132" font-family="Computer Modern" font-style="italic"><tspan y="-151.195" x="378.1 382.09504 385.95057 388.6106">fail</tspan></text>
<text fill="#f87171" xml:space="preserve" transform="matrix(.82 0 -0 .82 61.994539 184.50965)" font-size="6.97385" font-family="Computer Modern" font-style="italic"><tspan y="-152.252" x="394.943">&#x2192;</tspan></text>
<text fill="#f87171" xml:space="preserve" transform="matrix(.82 0 -0 .82 61.994539 184.50965)" font-size="6.97385" font-family="Computer Modern" font-style="italic"><tspan y="-152.252" x="406.325">e</tspan></text>
<text fill="#f87171" xml:space="preserve" transform="matrix(.82 0 -0 .82 61.994539 184.50965)" font-size="6.97385" font-family="Computer Modern" font-style="italic"><tspan y="-152.252" x="413.546">&#x2192;</tspan></text>
<text fill="#60a5fa" xml:space="preserve" transform="matrix(.82 0 -0 .82 61.994539 184.50965)" font-size="6.97385" font-family="Computer Modern" font-style="italic"><tspan y="-152.252" x="424.929 431.052 433.86946">Fix</tspan></text>
<text fill="#60a5fa" xml:space="preserve" transform="matrix(.82 0 -0 .82 61.994539 184.50965)" font-size="6.97385" font-family="Computer Modern" font-style="italic"><tspan y="-152.252" x="441.831">&#x2192;</tspan></text>
<text fill="#60a5fa" xml:space="preserve" transform="matrix(.82 0 -0 .82 61.994539 184.50965)" font-size="6.97385" font-family="Computer Modern" font-style="italic"><tspan y="-152.252" x="453.214">y</tspan></text>
<text fill="#60a5fa" xml:space="preserve" transform="matrix(.82 0 -0 .82 61.994539 184.50965)" font-size="4.98132" font-family="Computer Modern" font-style="italic"><tspan y="-155.259" x="457.504">&#x2217;</tspan></text>
<path transform="matrix(1,0,0,-1,77.934558,95.16955)" d="M341.69593-34.86687C341.69593-23.31285 332.3298-13.94672 320.77577-13.94672 309.22175-13.94672 299.8556-23.31285 299.8556-34.86687 299.8556-46.42088 309.22175-55.78703 320.77577-55.78703 332.3298-55.78703 341.69593-46.42088 341.69593-34.86687ZM320.77577-34.86687" fill="#7f807f" fill-opacity=".1"/>
<path transform="matrix(1,0,0,-1,75.942,93.176998)" d="M341.69593-34.86687C341.69593-23.31285 332.3298-13.94672 320.77577-13.94672 309.22175-13.94672 299.8556-23.31285 299.8556-34.86687 299.8556-46.42088 309.22175-55.78703 320.77577-55.78703 332.3298-55.78703 341.69593-46.42088 341.69593-34.86687ZM320.77577-34.86687" fill="#f0fdf4"/>
<path transform="matrix(1,0,0,-1,75.942,93.176998)" stroke-width=".3985" stroke-linecap="butt" stroke-miterlimit="10" stroke-linejoin="miter" fill="none" stroke="#4ade80" d="M341.69593-34.86687C341.69593-23.31285 332.3298-13.94672 320.77577-13.94672 309.22175-13.94672 299.8556-23.31285 299.8556-34.86687 299.8556-46.42088 309.22175-55.78703 320.77577-55.78703 332.3298-55.78703 341.69593-46.42088 341.69593-34.86687ZM320.77577-34.86687"/>
<text xml:space="preserve" transform="matrix(.82 0 -0 .82 68.77942 198.07155)" font-size="8.96638" font-family="LMRoman9" font-weight="bold"><tspan y="-87.867" x="382.108 388.59968 392.97526 398.13093 401.08088 406.97178 411.8405">Trained</tspan></text>
<text xml:space="preserve" transform="matrix(.82 0 -0 .82 68.77942 198.07155)" font-size="8.96638" font-family="LMRoman9"><tspan y="-76.908" x="384.175 389.2948 392.88136 398.00117 403.12098 407.2186 412.07838">Student</tspan></text>
<path transform="matrix(1,0,0,-1,75.942,93.176998)" stroke-width=".79701" stroke-linecap="butt" stroke-miterlimit="10" stroke-linejoin="miter" fill="none" stroke="#4b5563" d="M320.77577 26.78917V-8.40083"/>
<path transform="matrix(0,1,1,0,396.71778,98.45671)" d="M7.24382 0 1.39107 1.96269 3.32034 0 1.39107-1.96269Z" fill="#4b5563"/>
<path transform="matrix(0,1,1,0,396.71778,98.45671)" stroke-width=".79701" stroke-linecap="butt" stroke-miterlimit="10" stroke-linejoin="miter" fill="none" stroke="#4b5563" d="M7.24382 0 1.39107 1.96269 3.32034 0 1.39107-1.96269Z"/>
<text fill="#149343" xml:space="preserve" transform="matrix(.82 0 -0 .82 72.79416 188.45253)" font-size="6.97385" font-family="LMRoman7" font-weight="bold"><tspan y="-130.347" x="404.412 411.28123 416.53953 421.54676 425.93333 429.4551">Update</tspan></text>
<text fill="#149343" xml:space="preserve" transform="matrix(.82 0 -0 .82 72.79416 188.45253)" font-size="6.97385" font-family="Computer Modern" font-style="italic"><tspan y="-130.347" x="435.908">&#x03c0;</tspan></text>
<text fill="#149343" xml:space="preserve" transform="matrix(.82 0 -0 .82 72.79416 188.45253)" font-size="4.98132" font-family="Computer Modern" font-style="italic"><tspan y="-129.29" x="440.567">&#x03b8;</tspan></text>
<text fill="#149343" xml:space="preserve" transform="matrix(.82 0 -0 .82 72.79416 188.45253)" font-size="6.97385" font-family="LMRoman7"><tspan y="-122.377" x="404.412 411.58113 415.54924 419.73353 421.98609 428.53453 430.78709 434.3298 440.19483 442.4474 444.69996 448.67503 452.21775 454.4703 456.72288 461.12339 465.30073 469.48503">Maximizelikelihood</tspan><tspan y="-114.406" x="404.412 408.3801 413.17115 416.2815 419.82423 424.22474 428.19285 430.4454 435.87806 440.27857 444.24668 447.35704">ofrepairpath</tspan></text>
<path transform="matrix(1,0,0,-1,75.942,93.176998)" d="M542.42886 92.9784H419.89845C413.29566 92.9784 407.9431 87.6259 407.9431 81.02307V-81.02307C407.9431-87.6259 413.29566-92.9784 419.89845-92.9784H542.42886C549.0317-92.9784 554.3842-87.6259 554.3842-81.02307V81.02307C554.3842 87.6259 549.0317 92.9784 542.42886 92.9784ZM407.9431-92.9784" fill="#eff6ff"/>
<path transform="matrix(1,0,0,-1,75.942,93.176998)" stroke-width=".3985" stroke-linecap="butt" stroke-miterlimit="10" stroke-linejoin="miter" fill="none" stroke="#60a5fa" d="M542.42886 92.9784H419.89845C413.29566 92.9784 407.9431 87.6259 407.9431 81.02307V-81.02307C407.9431-87.6259 413.29566-92.9784 419.89845-92.9784H542.42886C549.0317-92.9784 554.3842-87.6259 554.3842-81.02307V81.02307C554.3842 87.6259 549.0317 92.9784 542.42886 92.9784ZM407.9431-92.9784"/>
<text fill="#4d84c8" xml:space="preserve" transform="matrix(.82 0 -0 .82 88.424869 176.36428)" font-size="11.95517" font-family="LMRoman12" font-weight="bold"><tspan y="-197.504" x="491.249 501.81736 511.84776 521.04129 535.6266 543.0986 548.33499 554.87448 562.34646 566.0884 569.8303 573.57229 579.54989 586.08938 591.32577 595.0677 601.79849">GRPOStabilization</tspan></text>
<text fill="#374151" xml:space="preserve" transform="matrix(.82 0 -0 .82 87.09842 209.59732)" font-size="8.96638" font-family="LMRoman9" font-style="italic"><tspan y="-12.876" x="529.92 534.4121 541.1279 549.88809 553.31326 557.54537 560.13217 562.71896 567.8925 572.12466 578.8674 582.6422 586.8743 591.58169 596.289 600.5211 603.3455 608.05288 611.9353">&#x201c;RLrefinesbehavior&#x201d;</tspan></text>
<text fill="#374151" xml:space="preserve" transform="matrix(.82 0 -0 .82 87.09842 209.59732)" font-size="6.97385" font-family="LMRoman7" font-style="italic"><tspan y="-1.917" x="513.942 520.1976 524.40286 527.1784 529.7448 536.4118 538.9782 542.3675 546.57278 549.3483 551.91476 556.12 563.7215 566.2879 569.37039 573.5756 583.2274 590.4175 595.8501 600.05538 603.5423 613.20108 616.59036 619.3659 623.57119 627.0581 629.8337">Optimizationfromawarmstart.</tspan></text>
<path transform="matrix(1,0,0,-1,77.934558,95.16955)" d="M502.08384 46.48917C502.08384 58.04318 492.71769 67.40932 481.16368 67.40932 469.60966 67.40932 460.2435 58.04318 460.2435 46.48917 460.2435 34.93513 469.60966 25.569 481.16368 25.569 492.71769 25.569 502.08384 34.93513 502.08384 46.48917ZM481.16368 46.48917" fill="#7f807f" fill-opacity=".1"/>
<path transform="matrix(1,0,0,-1,75.942,93.176998)" d="M502.08384 46.48917C502.08384 58.04318 492.71769 67.40932 481.16368 67.40932 469.60966 67.40932 460.2435 58.04318 460.2435 46.48917 460.2435 34.93513 469.60966 25.569 481.16368 25.569 492.71769 25.569 502.08384 34.93513 502.08384 46.48917ZM481.16368 46.48917" fill="#eff6ff"/>
<path transform="matrix(1,0,0,-1,75.942,93.176998)" stroke-width=".3985" stroke-linecap="butt" stroke-miterlimit="10" stroke-linejoin="miter" fill="none" stroke="#60a5fa" d="M502.08384 46.48917C502.08384 58.04318 492.71769 67.40932 481.16368 67.40932 469.60966 67.40932 460.2435 58.04318 460.2435 46.48917 460.2435 34.93513 469.60966 25.569 481.16368 25.569 492.71769 25.569 502.08384 34.93513 502.08384 46.48917ZM481.16368 46.48917"/>
<text xml:space="preserve" transform="matrix(.82 0 -0 .82 98.059848 183.31047)" font-size="8.96638" font-family="LMRoman9" font-weight="bold"><tspan y="-169.873" x="544.777 551.1521 559.15908 566.69979">LABD</tspan></text>
<text xml:space="preserve" transform="matrix(.82 0 -0 .82 98.059848 183.31047)" font-size="8.96638" font-family="LMRoman9"><tspan y="-158.914" x="547.454 553.4615 558.0702 560.6346 563.199 567.29666">Policy</tspan></text>
<path transform="matrix(1,0,0,-1,78.088977,95.32397)" d="M493.28385 9.29785H469.0435C467.3928 9.29785 466.05467 7.95973 466.05467 6.30902V-6.309C466.05467-7.95972 467.3928-9.29784 469.0435-9.29784H493.28385C494.93458-9.29784 496.27268-7.95972 496.27268-6.309V6.30902C496.27268 7.95973 494.93458 9.29785 493.28385 9.29785ZM466.05467-9.29784" fill="#7f807f" fill-opacity=".05"/>
<path transform="matrix(1,0,0,-1,75.942,93.176998)" d="M493.28385 9.29785H469.0435C467.3928 9.29785 466.05467 7.95973 466.05467 6.30902V-6.309C466.05467-7.95972 467.3928-9.29784 469.0435-9.29784H493.28385C494.93458-9.29784 496.27268-7.95972 496.27268-6.309V6.30902C496.27268 7.95973 494.93458 9.29785 493.28385 9.29785ZM466.05467-9.29784" fill="#dfedfe"/>
<path transform="matrix(1,0,0,-1,75.942,93.176998)" stroke-width=".3985" stroke-linecap="butt" stroke-miterlimit="10" stroke-linejoin="miter" fill="none" stroke="#4d84c8" d="M493.28385 9.29785H469.0435C467.3928 9.29785 466.05467 7.95973 466.05467 6.30902V-6.309C466.05467-7.95972 467.3928-9.29784 469.0435-9.29784H493.28385C494.93458-9.29784 496.27268-7.95972 496.27268-6.309V6.30902C496.27268 7.95973 494.93458 9.29785 493.28385 9.29785ZM466.05467-9.29784"/>
<text xml:space="preserve" transform="matrix(.82 0 -0 .82 99.66275 190.68094)" font-size="7.97011" font-family="Computer Modern" font-style="italic"><tspan y="-117.967" x="553.682">y</tspan></text>
<text xml:space="preserve" transform="matrix(.82 0 -0 .82 99.66275 190.68094)" font-size="5.97758" font-family="Computer Modern"><tspan y="-116.86" x="557.868">2</tspan></text>
<path transform="matrix(1,0,0,-1,78.088977,95.32397)" d="M451.44355 9.29785H427.20317C425.55247 9.29785 424.21434 7.95973 424.21434 6.30902V-6.309C424.21434-7.95972 425.55247-9.29784 427.20317-9.29784H451.44355C453.09425-9.29784 454.43238-7.95972 454.43238-6.309V6.30902C454.43238 7.95973 453.09425 9.29785 451.44355 9.29785ZM424.21434-9.29784" fill="#7f807f" fill-opacity=".05"/>
<path transform="matrix(1,0,0,-1,75.942,93.176998)" d="M451.44355 9.29785H427.20317C425.55247 9.29785 424.21434 7.95973 424.21434 6.30902V-6.309C424.21434-7.95972 425.55247-9.29784 427.20317-9.29784H451.44355C453.09425-9.29784 454.43238-7.95972 454.43238-6.309V6.30902C454.43238 7.95973 453.09425 9.29785 451.44355 9.29785ZM424.21434-9.29784" fill="#dfedfe"/>
<path transform="matrix(1,0,0,-1,75.942,93.176998)" stroke-width=".3985" stroke-linecap="butt" stroke-miterlimit="10" stroke-linejoin="miter" fill="none" stroke="#4d84c8" d="M451.44355 9.29785H427.20317C425.55247 9.29785 424.21434 7.95973 424.21434 6.30902V-6.309C424.21434-7.95972 425.55247-9.29784 427.20317-9.29784H451.44355C453.09425-9.29784 454.43238-7.95972 454.43238-6.309V6.30902C454.43238 7.95973 453.09425 9.29785 451.44355 9.29785ZM424.21434-9.29784"/>
<text xml:space="preserve" transform="matrix(.82 0 -0 .82 92.13153 190.68094)" font-size="7.97011" font-family="Computer Modern" font-style="italic"><tspan y="-117.967" x="511.842">y</tspan></text>
<text xml:space="preserve" transform="matrix(.82 0 -0 .82 92.13153 190.68094)" font-size="5.97758" font-family="Computer Modern"><tspan y="-116.86" x="516.028">1</tspan></text>
<path transform="matrix(1,0,0,-1,78.088977,95.32397)" d="M535.12417 9.29785H510.8838C509.2331 9.29785 507.89497 7.95973 507.89497 6.30902V-6.309C507.89497-7.95972 509.2331-9.29784 510.8838-9.29784H535.12417C536.77487-9.29784 538.113-7.95972 538.113-6.309V6.30902C538.113 7.95973 536.77487 9.29785 535.12417 9.29785ZM507.89497-9.29784" fill="#7f807f" fill-opacity=".05"/>
<path transform="matrix(1,0,0,-1,75.942,93.176998)" d="M535.12417 9.29785H510.8838C509.2331 9.29785 507.89497 7.95973 507.89497 6.30902V-6.309C507.89497-7.95972 509.2331-9.29784 510.8838-9.29784H535.12417C536.77487-9.29784 538.113-7.95972 538.113-6.309V6.30902C538.113 7.95973 536.77487 9.29785 535.12417 9.29785ZM507.89497-9.29784" fill="#dfedfe"/>
<path transform="matrix(1,0,0,-1,75.942,93.176998)" stroke-width=".3985" stroke-linecap="butt" stroke-miterlimit="10" stroke-linejoin="miter" fill="none" stroke="#4d84c8" d="M535.12417 9.29785H510.8838C509.2331 9.29785 507.89497 7.95973 507.89497 6.30902V-6.309C507.89497-7.95972 509.2331-9.29784 510.8838-9.29784H535.12417C536.77487-9.29784 538.113-7.95972 538.113-6.309V6.30902C538.113 7.95973 536.77487 9.29785 535.12417 9.29785ZM507.89497-9.29784"/>
<text xml:space="preserve" transform="matrix(.82 0 -0 .82 107.19403 190.68094)" font-size="7.97011" font-family="Computer Modern" font-style="italic"><tspan y="-117.967" x="595.522">y</tspan></text>
<text xml:space="preserve" transform="matrix(.82 0 -0 .82 107.19403 190.68094)" font-size="5.97758" font-family="Computer Modern"><tspan y="-116.86" x="599.707">3</tspan></text>
<text fill="#866fc8" xml:space="preserve" transform="matrix(.82 0 -0 .82 89.76346 194.23648)" font-size="6.97385" font-family="LMRoman7" font-weight="bold"><tspan y="-98.214" x="498.686 503.69325 508.0798 515.56277 520.56997 523.10147 530.25668 537.3142 541.0452 545.5573 550.5645">SampleGroup</tspan></text>
<path transform="matrix(1,0,0,-1,75.942,93.176998)" d="M453.4311-69.77327 459.67726-46.44962H508.89625L502.6501-69.77327Z" fill="#f9fafb"/>
<path transform="matrix(1,0,0,-1,75.942,93.176998)" stroke-width=".3985" stroke-linecap="butt" stroke-miterlimit="10" stroke-linejoin="miter" fill="none" stroke="#9ca3af" d="M453.4311-69.77327 459.67726-46.44962H508.89625L502.6501-69.77327Z"/>
<text xml:space="preserve" transform="matrix(.82 0 -0 .82 97.263889 202.1563)" font-size="8.96638" font-family="LMRoman9"><tspan y="-65.174" x="540.355 547.13357 551.2312 557.62429 562.233 565.83749 574.0327">Reward&#x0026;</tspan><tspan y="-54.215" x="545.923 552.83609 558.2159 563.3357 567.9444 571.53097">Update</tspan></text>
<path transform="matrix(1,0,0,-1,75.942,93.176998)" stroke-width=".79701" stroke-linecap="butt" stroke-miterlimit="10" stroke-linejoin="miter" fill="none" stroke="#4b5563" d="M465.37528 32.51877 443.3527 13.02878"/>
<path transform="matrix(-.74881,.66269,.66269,.74881,521.6318,78.0799)" d="M7.24382 0 1.39107 1.96269 3.32034 0 1.39107-1.96269Z" fill="#4b5563"/>
<path transform="matrix(-.74881,.66269,.66269,.74881,521.6318,78.0799)" stroke-width=".79701" stroke-linecap="butt" stroke-miterlimit="10" stroke-linejoin="miter" fill="none" stroke="#4b5563" d="M7.24382 0 1.39107 1.96269 3.32034 0 1.39107-1.96269Z"/>
<path transform="matrix(1,0,0,-1,75.942,93.176998)" stroke-width=".79701" stroke-linecap="butt" stroke-miterlimit="10" stroke-linejoin="miter" fill="none" stroke="#4b5563" d="M481.16398 25.4068 481.16374 14.8444"/>
<path transform="matrix(-.00002,.99998,.99998,.00002,557.1058,75.211528)" d="M7.24382 0 1.39107 1.96269 3.32034 0 1.39107-1.96269Z" fill="#4b5563"/>
<path transform="matrix(-.00002,.99998,.99998,.00002,557.1058,75.211528)" stroke-width=".79701" stroke-linecap="butt" stroke-miterlimit="10" stroke-linejoin="miter" fill="none" stroke="#4b5563" d="M7.24382 0 1.39107 1.96269 3.32034 0 1.39107-1.96269Z"/>
<path transform="matrix(1,0,0,-1,75.942,93.176998)" stroke-width=".79701" stroke-linecap="butt" stroke-miterlimit="10" stroke-linejoin="miter" fill="none" stroke="#4b5563" d="M496.95207 32.51909 518.9746 13.02885"/>
<path transform="matrix(.74881,.6627,.6627,-.74881,592.5795,78.07979)" d="M7.24382 0 1.39107 1.96269 3.32034 0 1.39107-1.96269Z" fill="#4b5563"/>
<path transform="matrix(.74881,.6627,.6627,-.74881,592.5795,78.07979)" stroke-width=".79701" stroke-linecap="butt" stroke-miterlimit="10" stroke-linejoin="miter" fill="none" stroke="#4b5563" d="M7.24382 0 1.39107 1.96269 3.32034 0 1.39107-1.96269Z"/>
<path transform="matrix(1,0,0,-1,75.942,93.176998)" stroke-width=".79701" stroke-linecap="butt" stroke-miterlimit="10" stroke-linejoin="miter" fill="none" stroke="#4b5563" d="M481.1647-13.64636 481.167-40.90076"/>
<path transform="matrix(.00008,.99998,.99998,-.00008,557.10879,130.9567)" d="M7.24382 0 1.39107 1.96269 3.32034 0 1.39107-1.96269Z" fill="#4b5563"/>
<path transform="matrix(.00008,.99998,.99998,-.00008,557.10879,130.9567)" stroke-width=".79701" stroke-linecap="butt" stroke-miterlimit="10" stroke-linejoin="miter" fill="none" stroke="#4b5563" d="M7.24382 0 1.39107 1.96269 3.32034 0 1.39107-1.96269Z"/>
<path transform="matrix(1,0,0,-1,75.942,93.176998)" stroke-width=".79701" stroke-linecap="butt" stroke-dasharray="2.98883,2.98883" stroke-miterlimit="10" stroke-linejoin="miter" fill="none" stroke="#2563eb" d="M505.94377-58.11337H538.1539C540.905-58.11337 543.13528-55.88316 543.13528-53.13199V41.50937C543.13528 44.26056 540.905 46.49075 538.1539 46.49075H507.6601"/>
<path transform="matrix(-1,-0,0,1,586.694,46.686246)" d="M7.36906 0 1.28693 2.29385 3.2911 0 1.28693-2.29385Z" fill="#2563eb"/>
<path transform="matrix(-1,-0,0,1,586.694,46.686246)" stroke-width=".79701" stroke-linecap="butt" stroke-miterlimit="10" stroke-linejoin="miter" fill="none" stroke="#2563eb" d="M7.36906 0 1.28693 2.29385 3.2911 0 1.28693-2.29385Z"/>
<path transform="matrix(1,0,0,-1,75.942,93.176998)" stroke-width=".79701" stroke-linecap="butt" stroke-dasharray="2.98883,2.98883" stroke-miterlimit="10" stroke-linejoin="miter" fill="none" stroke="#afb3b9" d="M75.37897 0H79.63148"/>
<path transform="matrix(1,0,0,-1,152.4524,93.176998)" d="M7.24382 0 1.39107 1.96269 3.32034 0 1.39107-1.96269Z" fill="#afb3b9"/>
<path transform="matrix(1,0,0,-1,152.4524,93.176998)" stroke-width=".79701" stroke-linecap="butt" stroke-miterlimit="10" stroke-linejoin="miter" fill="none" stroke="#afb3b9" d="M7.24382 0 1.39107 1.96269 3.32034 0 1.39107-1.96269Z"/>
<path transform="matrix(1,0,0,-1,75.942,93.176998)" stroke-width=".79701" stroke-linecap="butt" stroke-dasharray="2.98883,2.98883" stroke-miterlimit="10" stroke-linejoin="miter" fill="none" stroke="#afb3b9" d="M235.7724 0H240.02494"/>
<path transform="matrix(1,0,0,-1,312.84584,93.176998)" d="M7.24382 0 1.39107 1.96269 3.32034 0 1.39107-1.96269Z" fill="#afb3b9"/>
<path transform="matrix(1,0,0,-1,312.84584,93.176998)" stroke-width=".79701" stroke-linecap="butt" stroke-miterlimit="10" stroke-linejoin="miter" fill="none" stroke="#afb3b9" d="M7.24382 0 1.39107 1.96269 3.32034 0 1.39107-1.96269Z"/>
<path transform="matrix(1,0,0,-1,75.942,93.176998)" stroke-width=".79701" stroke-linecap="butt" stroke-dasharray="2.98883,2.98883" stroke-miterlimit="10" stroke-linejoin="miter" fill="none" stroke="#afb3b9" d="M396.16584 0H400.41838"/>
<path transform="matrix(1,0,0,-1,473.23927,93.176998)" d="M7.24382 0 1.39107 1.96269 3.32034 0 1.39107-1.96269Z" fill="#afb3b9"/>
<path transform="matrix(1,0,0,-1,473.23927,93.176998)" stroke-width=".79701" stroke-linecap="butt" stroke-miterlimit="10" stroke-linejoin="miter" fill="none" stroke="#afb3b9" d="M7.24382 0 1.39107 1.96269 3.32034 0 1.39107-1.96269Z"/>
</svg>
